<svg width="44" height="44" viewBox="0 0 40 40" fill="none" xmlns="http://www.w3.org/2000/svg">
<g clip-path="url(#clip0_643_3815)">
<path d="M21.7886 16.673C22.3463 17.1345 22.8655 17.6538 23.327 18.2114C23.6732 17.4807 23.9424 16.6922 24.1155 15.8845C23.3078 16.0576 22.5193 16.3268 21.7886 16.673Z" fill="#28CA7C"/>
<path d="M15.6731 13.923C17.2308 14.173 18.6923 14.6923 20 15.4423C21.3077 14.6923 22.7692 14.1538 24.3269 13.923C24.3269 13.8653 24.3269 13.8076 24.3269 13.7499C24.3269 10.2499 22.6154 7.17302 20 5.23071C17.3846 7.15379 15.6731 10.2499 15.6731 13.7499C15.6731 13.8076 15.6731 13.8653 15.6731 13.923Z" fill="#28CA7C"/>
<path d="M23.327 21.7886C22.8655 22.3463 22.3463 22.8655 21.7886 23.327C22.5193 23.6732 23.3078 23.9424 24.1155 24.1155C23.9424 23.3078 23.6732 22.5193 23.327 21.7886Z" fill="#28CA7C"/>
<path d="M18.2114 16.673C17.4807 16.3268 16.6922 16.0576 15.8845 15.8845C16.0576 16.6922 16.3268 17.4807 16.673 18.2114C17.1345 17.6538 17.6538 17.1345 18.2114 16.673Z" fill="#28CA7C"/>
<path d="M18.2114 23.327C17.6538 22.8655 17.1345 22.3463 16.673 21.7886C16.3268 22.5193 16.0576 23.3078 15.8845 24.1155C16.6922 23.9424 17.4807 23.6732 18.2114 23.327Z" fill="#28CA7C"/>
<path d="M19.9999 22.2692C20.8653 21.6346 21.6346 20.8653 22.2692 19.9999C21.6346 19.1346 20.8653 18.3653 19.9999 17.7307C19.1346 18.3653 18.3653 19.1346 17.7307 19.9999C18.3653 20.8653 19.1346 21.6346 19.9999 22.2692Z" fill="#28CA7C"/>
<path d="M13.75 13.75C13.75 9.90386 15.4808 6.46156 18.2116 4.1731C16.8462 3.53848 15.3462 3.1731 13.75 3.1731C7.9231 3.1731 3.1731 7.9231 3.1731 13.75C3.1731 15.3462 3.53848 16.8654 4.1731 18.2116C6.46156 15.4808 9.90386 13.75 13.75 13.75Z" fill="#28CA7C"/>
<path d="M5.23071 20C7.15379 22.6154 10.2499 24.3269 13.7499 24.3269C13.8076 24.3269 13.8653 24.3269 13.923 24.3269C14.173 22.7692 14.6923 21.3077 15.4423 20C14.6923 18.6923 14.1538 17.2308 13.923 15.6731C13.8653 15.6731 13.8076 15.6731 13.7499 15.6731C10.2499 15.6731 7.17302 17.3846 5.23071 20Z" fill="#28CA7C"/>
<path d="M34.7692 20C32.8461 17.3846 29.7499 15.6731 26.2499 15.6731C26.1922 15.6731 26.1345 15.6731 26.0768 15.6731C25.8268 17.2308 25.3076 18.6923 24.5576 20C25.3076 21.3077 25.8461 22.7692 26.0768 24.3269C26.1345 24.3269 26.1922 24.3269 26.2499 24.3269C29.7499 24.3269 32.8268 22.6154 34.7692 20Z" fill="#28CA7C"/>
<path d="M26.2501 3.1731C24.654 3.1731 23.1347 3.53848 21.7886 4.1731C24.5193 6.46156 26.2501 9.90386 26.2501 13.75C30.0963 13.75 33.5386 15.4808 35.827 18.2116C36.4616 16.8462 36.827 15.3462 36.827 13.75C36.827 7.9231 32.077 3.1731 26.2501 3.1731Z" fill="#28CA7C"/>
<path d="M13.75 26.2501C9.90386 26.2501 6.46156 24.5193 4.1731 21.7886C3.53848 23.154 3.1731 24.654 3.1731 26.2501C3.1731 32.077 7.9231 36.827 13.75 36.827C15.3462 36.827 16.8654 36.4616 18.2116 35.827C15.4808 33.5386 13.75 30.0963 13.75 26.2501Z" fill="#28CA7C"/>
<path d="M24.3269 26.0768C22.7692 25.8268 21.3077 25.3076 20 24.5576C18.6923 25.3076 17.2308 25.8461 15.6731 26.0768C15.6731 26.1345 15.6731 26.1922 15.6731 26.2499C15.6731 29.7499 17.3846 32.8268 20 34.7692C22.6154 32.8461 24.3269 29.7499 24.3269 26.2499C24.3269 26.1922 24.3269 26.1345 24.3269 26.0768Z" fill="#28CA7C"/>
<path d="M26.2501 26.2501C26.2501 30.0963 24.5193 33.5386 21.7886 35.827C23.154 36.4616 24.654 36.827 26.2501 36.827C32.077 36.827 36.827 32.077 36.827 26.2501C36.827 24.654 36.4616 23.1347 35.827 21.7886C33.5386 24.5193 30.0963 26.2501 26.2501 26.2501Z" fill="#28CA7C"/>
</g>
<defs>
<clipPath id="clip0_643_3815">
<rect width="37.5" height="37.5" fill="white" transform="translate(1.25 1.25)"/>
</clipPath>
</defs>
</svg>
