<svg width="38" height="38" viewBox="0 0 24 24" fill="none" xmlns="http://www.w3.org/2000/svg">
<path d="M8.49989 2.53385C11.7844 2.53385 14.4659 5.20462 14.4659 8.5C14.4659 11.7954 11.7952 14.4662 8.49989 14.4662C5.20456 14.4662 2.53383 11.7846 2.53383 8.5C2.53383 5.21538 5.21532 2.53385 8.49989 2.53385ZM8.49989 1.5C4.6338 1.5 1.5 4.63385 1.5 8.5C1.5 12.3662 4.6338 15.5 8.49989 15.5C12.366 15.5 15.4998 12.3662 15.4998 8.5C15.4998 4.63385 12.366 1.5 8.49989 1.5Z" fill="#28CA7C"/>
<path d="M15.5001 2.53385C18.7847 2.53385 21.4662 5.20462 21.4662 8.5C21.4662 11.7954 18.7955 14.4662 15.5001 14.4662C12.2048 14.4662 9.53407 11.7954 9.53407 8.5C9.53407 5.20462 12.2156 2.53385 15.5001 2.53385ZM15.5001 1.5C11.634 1.5 8.50024 4.63385 8.50024 8.5C8.50024 12.3662 11.634 15.5 15.5001 15.5C19.3662 15.5 22.5 12.3662 22.5 8.5C22.5 4.63385 19.3662 1.5 15.5001 1.5Z" fill="#28CA7C"/>
<path d="M8.49989 9.53372C11.7844 9.53372 14.4659 12.2045 14.4659 15.4999C14.4659 18.7953 11.7952 21.466 8.49989 21.466C5.20456 21.466 2.53383 18.7845 2.53383 15.4999C2.53383 12.2153 5.21532 9.53372 8.49989 9.53372ZM8.49989 8.49988C4.6338 8.49988 1.5 11.6337 1.5 15.4999C1.5 19.366 4.6338 22.4999 8.49989 22.4999C12.366 22.4999 15.4998 19.366 15.4998 15.4999C15.4998 11.6337 12.366 8.49988 8.49989 8.49988Z" fill="#28CA7C"/>
<path d="M15.5001 9.53372C18.7847 9.53372 21.4662 12.2045 21.4662 15.4999C21.4662 18.7953 18.7955 21.466 15.5001 21.466C12.2048 21.466 9.53407 18.7953 9.53407 15.4999C9.53407 12.2045 12.2048 9.53372 15.5001 9.53372ZM15.5001 8.49988C11.634 8.49988 8.50024 11.6337 8.50024 15.4999C8.50024 19.366 11.634 22.4999 15.5001 22.4999C19.3662 22.4999 22.5 19.366 22.5 15.4999C22.5 11.6337 19.3662 8.49988 15.5001 8.49988Z" fill="#28CA7C"/>
</svg>
