<svg width="38" height="38" viewBox="0 0 24 24" fill="none" xmlns="http://www.w3.org/2000/svg">
<path d="M15.5 2.57692C18.7631 2.57692 21.4231 5.23692 21.4231 8.5C21.4231 9.53385 21.1431 10.5569 20.6262 11.4615L20.3138 12L20.6262 12.5385C21.1538 13.4431 21.4231 14.4662 21.4231 15.5C21.4231 18.7631 18.7631 21.4231 15.5 21.4231C14.4662 21.4231 13.4431 21.1431 12.5385 20.6262L12 20.3138L11.4615 20.6262C10.5569 21.1538 9.53385 21.4231 8.5 21.4231C5.23692 21.4231 2.57692 18.7631 2.57692 15.5C2.57692 14.4662 2.85692 13.4431 3.37385 12.5385L3.68615 12L3.37385 11.4615C2.84615 10.5569 2.57692 9.53385 2.57692 8.5C2.57692 5.23692 5.23692 2.57692 8.5 2.57692C9.53385 2.57692 10.5569 2.85692 11.4615 3.37385L12 3.68615L12.5385 3.37385C13.4431 2.84615 14.4662 2.57692 15.5 2.57692M15.5 1.5C14.2185 1.5 13.0338 1.84462 12 2.44769C10.9662 1.85538 9.78154 1.5 8.5 1.5C4.63385 1.5 1.5 4.63385 1.5 8.5C1.5 9.78154 1.84462 10.9662 2.44769 12C1.85539 13.0338 1.5 14.2185 1.5 15.5C1.5 19.3662 4.63385 22.5 8.5 22.5C9.78154 22.5 10.9662 22.1554 12 21.5523C13.0338 22.1446 14.2185 22.5 15.5 22.5C19.3662 22.5 22.5 19.3662 22.5 15.5C22.5 14.2185 22.1554 13.0338 21.5523 12C22.1446 10.9662 22.5 9.78154 22.5 8.5C22.5 4.63385 19.3662 1.5 15.5 1.5V1.5Z" fill="#28CA7C"/>
</svg>
