<svg width="40" height="40" viewBox="0 0 40 40" fill="none" xmlns="http://www.w3.org/2000/svg">
<path d="M25 6C29.96 6 34 10.12 34 15.19C34 16.7 33.63 18.2 32.93 19.53L32.69 20L32.93 20.47C33.63 21.8 34 23.3 34 24.81C34 29.88 29.96 34 25 34C23.43 34 21.88 33.57 20.51 32.76L20 32.46L19.49 32.76C18.12 33.57 16.57 34 15 34C10.04 34 6 29.88 6 24.81C6 23.3 6.37001 21.8 7.07001 20.47L7.31 20L7.07001 19.53C6.37001 18.2 6 16.7 6 15.19C6 10.12 10.04 6 15 6C16.57 6 18.12 6.43 19.49 7.24L20 7.54L20.51 7.24C21.88 6.43 23.43 6 25 6M25 5C23.18 5 21.47 5.51 20 6.37C18.53 5.5 16.82 5 15 5C9.48 5 5 9.56 5 15.19C5 16.93 5.43001 18.57 6.18001 20C5.43001 21.43 5 23.07 5 24.81C5 30.44 9.48 35 15 35C16.82 35 18.53 34.49 20 33.63C21.47 34.5 23.18 35 25 35C30.52 35 35 30.44 35 24.81C35 23.07 34.57 21.43 33.82 20C34.57 18.57 35 16.93 35 15.19C35 9.56 30.52 5 25 5V5Z" fill="#28CA7C"/>
<path d="M25.03 15.89H14.95C14.67 15.89 14.45 15.67 14.45 15.39C14.45 15.11 14.67 14.89 14.95 14.89H25.03C25.31 14.89 25.53 15.11 25.53 15.39C25.53 15.67 25.31 15.89 25.03 15.89Z" fill="#28CA7C"/>
<path d="M20 12.03H14.96C14.68 12.03 14.46 11.81 14.46 11.53C14.46 11.25 14.68 11.03 14.96 11.03H20C20.28 11.03 20.5 11.25 20.5 11.53C20.5 11.81 20.28 12.03 20 12.03Z" fill="#28CA7C"/>
<path d="M24.8701 28.6899H19.8301C19.5501 28.6899 19.3301 28.4699 19.3301 28.1899C19.3301 27.9099 19.5501 27.6899 19.8301 27.6899H24.8701C25.1501 27.6899 25.3701 27.9099 25.3701 28.1899C25.3701 28.4699 25.1501 28.6899 24.8701 28.6899Z" fill="#28CA7C"/>
<path d="M25.03 20.5H14.95C14.67 20.5 14.45 20.28 14.45 20C14.45 19.72 14.67 19.5 14.95 19.5H25.03C25.31 19.5 25.53 19.72 25.53 20C25.53 20.28 25.31 20.5 25.03 20.5Z" fill="#28CA7C"/>
<path d="M25.03 25.11H14.95C14.67 25.11 14.45 24.89 14.45 24.61C14.45 24.33 14.67 24.11 14.95 24.11H25.03C25.31 24.11 25.53 24.33 25.53 24.61C25.53 24.89 25.31 25.11 25.03 25.11Z" fill="#28CA7C"/>
</svg>
