<svg width="78" height="32" viewBox="0 0 78 32" fill="none" xmlns="http://www.w3.org/2000/svg">
<path d="M24.452 12.9H26.734V11.962H20.91V12.9H23.346V13.88C23.346 16.428 22.408 18.57 20.616 19.578L21.316 20.446C22.618 19.69 23.5 18.332 23.92 16.624C24.368 18.108 25.236 19.326 26.468 20.012L27.14 19.13C25.362 18.206 24.452 16.176 24.452 13.88V12.9ZM30.346 10.464V15.546H28.694V10.758H27.616V22.42H28.694V16.498H30.346V23.036H31.452V10.464H30.346ZM41.5169 14.79H43.1129V18.234H44.2189V10.492H43.1129V13.852H41.5169V10.73H40.4249V17.828H41.5169V14.79ZM39.9069 16.372C38.2969 15.756 37.3589 14.342 37.3589 12.956V11.262H36.2529V12.956C36.2529 14.356 35.2729 15.98 33.6349 16.708L34.2509 17.604C35.4689 17.058 36.3649 15.994 36.8129 14.818C37.2609 15.882 38.1149 16.778 39.2909 17.254L39.9069 16.372ZM40.0749 22.14C38.1989 22.14 37.0229 21.636 37.0229 20.768C37.0229 19.9 38.1989 19.41 40.0749 19.41C41.9789 19.41 43.1409 19.9 43.1409 20.768C43.1409 21.636 41.9789 22.14 40.0749 22.14ZM40.0749 18.514C37.4989 18.514 35.8889 19.34 35.8889 20.768C35.8889 22.196 37.4989 23.022 40.0749 23.022C42.6649 23.022 44.2749 22.196 44.2749 20.768C44.2749 19.34 42.6649 18.514 40.0749 18.514ZM47.7598 19.998H55.3058V23.05H56.4538V19.074H47.7598V19.998ZM49.0758 11.906H55.2638V14.342H49.0758V11.906ZM52.7578 16.848V15.252H56.3978V10.996H47.9558V15.252H51.6098V16.848H46.4858V17.772H57.8538V16.848H52.7578ZM60.6387 20.222H68.2267V22.924H69.3747V19.284H60.6387V20.222ZM65.6507 17.38V16.064H69.5707V15.168H61.9687V13.852H69.3047V10.8H60.8067V11.696H68.1707V12.998H60.8347V16.064H64.4887V17.38H59.3647V18.318H70.7607V17.38H65.6507Z" fill="#B4B4B4"/>
<path d="M0.500355 9.02H7.56537C7.84557 9.02 8.06573 8.79 8.06573 8.51C8.06573 8.23 7.83557 8 7.56537 8H0.500355C0.230163 8 0 8.23 0 8.51C0 8.79 0.230163 9.02 0.500355 9.02Z" fill="#B4B4B4"/>
<path d="M0.500355 12.2099H7.56537C7.84557 12.2099 8.06573 11.9799 8.06573 11.6999C8.06573 11.4199 7.83557 11.1899 7.56537 11.1899H0.500355C0.220156 11.1899 0 11.4199 0 11.6999C0 11.9799 0.230163 12.2099 0.500355 12.2099Z" fill="#B4B4B4"/>
<path d="M8.07574 14.9C8.07574 14.62 7.84557 14.39 7.57538 14.39H0.500355C0.220156 14.39 0 14.62 0 14.9C0 15.18 0.230163 15.41 0.500355 15.41H7.56537C7.84557 15.41 8.06573 15.18 8.06573 14.9H8.07574Z" fill="#B4B4B4"/>
<path d="M10.1973 8.05001C9.96711 8.01001 9.74695 8.07001 9.57683 8.21001C9.40671 8.35001 9.30664 8.56001 9.30664 8.79001V16.57C9.14653 16.54 8.98641 16.52 8.8263 16.52C8.36597 16.52 7.93566 16.65 7.5654 16.86C7.19514 16.64 6.76483 16.52 6.30451 16.52C4.91352 16.52 3.78271 17.66 3.78271 19.06C3.78271 19.49 3.89279 19.9 4.08293 20.26C3.89279 20.62 3.78271 21.02 3.78271 21.46C3.78271 22.86 4.91352 24 6.30451 24C6.76483 24 7.19514 23.87 7.5654 23.66C7.93566 23.88 8.36597 24 8.8263 24C10.2173 24 11.3481 22.86 11.3481 21.46C11.3481 21.03 11.238 20.62 11.0479 20.26C11.238 19.9 11.3481 19.5 11.3481 19.06C11.3481 18.22 10.9378 17.49 10.3174 17.02V9.11001C11.3081 9.37001 12.9993 10.2 12.9993 12.86C12.9993 13.14 13.2294 13.37 13.4996 13.37C13.7698 13.37 14 13.14 14 12.86C14.01 9.03001 11.0879 8.21001 10.1973 8.05001ZM10.1572 20.75C10.2773 20.97 10.3374 21.21 10.3374 21.47C10.3374 22.31 9.65689 22.99 8.8263 22.99C8.55611 22.99 8.30593 22.92 8.07576 22.78L7.5654 22.48L7.05504 22.78C6.82488 22.92 6.56469 22.99 6.30451 22.99C5.47392 22.99 4.79343 22.31 4.79343 21.47C4.79343 21.22 4.85348 20.98 4.97356 20.75L5.23375 20.27L4.97356 19.79C4.85348 19.57 4.79343 19.33 4.79343 19.07C4.79343 18.23 5.47392 17.55 6.30451 17.55C6.5747 17.55 6.82488 17.62 7.05504 17.76L7.5654 18.06L8.06576 17.76C8.29592 17.62 8.55611 17.55 8.81629 17.55C9.64688 17.55 10.3274 18.23 10.3274 19.07C10.3274 19.32 10.2673 19.57 10.1472 19.79L9.88705 20.27L10.1472 20.75H10.1572Z" fill="#B4B4B4"/>
</svg>
