<svg width="40" height="40" viewBox="0 0 40 40" fill="none" xmlns="http://www.w3.org/2000/svg">
<path d="M25 6C29.96 6 34 10.12 34 15.19C34 16.7 33.63 18.2 32.93 19.53L32.69 20L32.93 20.47C33.63 21.8 34 23.3 34 24.81C34 29.88 29.96 34 25 34C23.43 34 21.88 33.57 20.51 32.76L20 32.46L19.49 32.76C18.12 33.57 16.57 34 15 34C10.04 34 6 29.88 6 24.81C6 23.3 6.37 21.8 7.07 20.47L7.31 20L7.07 19.53C6.37 18.2 6 16.7 6 15.19C6 10.12 10.04 6 15 6C16.57 6 18.12 6.43 19.49 7.24L20 7.54L20.51 7.24C21.88 6.43 23.43 6 25 6ZM25 5C23.18 5 21.47 5.51 20 6.37C18.53 5.5 16.82 5 15 5C9.48 5 5 9.56 5 15.19C5 16.93 5.43 18.57 6.18 20C5.43 21.43 5 23.07 5 24.81C5 30.44 9.48 35 15 35C16.82 35 18.53 34.49 20 33.63C21.47 34.5 23.18 35 25 35C30.52 35 35 30.44 35 24.81C35 23.07 34.57 21.43 33.82 20C34.57 18.57 35 16.93 35 15.19C35 9.56 30.52 5 25 5V5Z" fill="#28CA7C"/>
<path d="M18.11 14.56L24.5 17.71C24.01 18.28 23.37 18.69 22.64 18.88C22.37 18.95 22.14 19.13 22.01 19.37L16.99 28.4L14.71 27.28L18.42 17.61C18.52 17.35 18.51 17.07 18.4 16.82C18.08 16.11 17.98 15.33 18.12 14.57M17.82 13.62C17.7 13.62 17.58 13.7 17.54 13.82C17.18 14.93 17.26 16.11 17.72 17.13C17.75 17.2 17.75 17.27 17.72 17.34L13.86 27.4C13.81 27.54 13.86 27.7 14 27.77L17.05 29.27C17.05 29.27 17.13 29.3 17.17 29.3C17.27 29.3 17.37 29.25 17.42 29.15L22.65 19.73C22.69 19.66 22.75 19.62 22.82 19.6C23.87 19.33 24.81 18.66 25.42 17.7C25.51 17.55 25.45 17.34 25.3 17.27L17.92 13.64C17.92 13.64 17.84 13.61 17.79 13.61L17.82 13.62Z" fill="#28CA7C"/>
<path d="M21.7401 11.46C22.2901 11.46 22.8301 11.59 23.3301 11.83C24.8401 12.57 25.6501 14.25 25.3501 15.9L18.9601 12.75C19.6501 11.93 20.6601 11.46 21.7401 11.46ZM21.7401 10.71C20.2701 10.71 18.8601 11.46 18.0301 12.76C17.9401 12.91 18.0001 13.11 18.1501 13.19L25.5301 16.82C25.5301 16.82 25.6101 16.85 25.6601 16.85C25.7801 16.85 25.9001 16.77 25.9401 16.65C26.6301 14.53 25.6901 12.16 23.6601 11.16C23.0401 10.85 22.3801 10.71 21.7401 10.71Z" fill="#28CA7C"/>
</svg>
