<svg width="100" height="61" viewBox="0 0 100 61" fill="none" xmlns="http://www.w3.org/2000/svg">
<path d="M50.1488 8C37.9309 8 28.0371 18.0667 28.0371 30.5C28.0371 42.9333 37.9309 53 50.1488 53C62.3667 53 72.2606 42.9333 72.2606 30.5C72.2606 18.0667 62.3501 8 50.1488 8ZM50.1488 44.75C42.413 44.75 36.1547 38.3667 36.1547 30.5C36.1547 22.6333 42.4296 16.25 50.1488 16.25C57.868 16.25 64.143 22.6333 64.143 30.5C64.143 38.3667 57.868 44.75 50.1488 44.75Z" fill="#28CA7C"/>
<path d="M20.7993 18.767C18.608 18.767 16.8318 23.7503 16.8318 29.8836C16.8318 36.017 18.608 41.0003 20.7993 41.0003C22.9905 41.0003 24.7668 36.017 24.7668 29.8836C24.7668 23.7503 22.9905 18.767 20.7993 18.767V18.767Z" fill="#28CA7C"/>
<path d="M11.0399 22.7842C9.64543 22.7842 8.5 25.9675 8.5 29.8842C8.5 33.8008 9.62883 36.9842 11.0399 36.9842C12.4509 36.9842 13.5797 33.8008 13.5797 29.8842C13.5797 25.9675 12.4509 22.7842 11.0399 22.7842V22.7842Z" fill="#28CA7C"/>
<path d="M79.5507 18.9503C77.3927 18.9503 75.6331 23.8503 75.6331 29.9003C75.6331 35.9503 77.3761 40.8503 79.5507 40.8503C81.7254 40.8503 83.4684 35.9503 83.4684 29.9003C83.4684 23.8503 81.7254 18.9503 79.5507 18.9503Z" fill="#28CA7C"/>
<path d="M89.0101 36.8656C90.3853 36.8656 91.5001 33.739 91.5001 29.8823C91.5001 26.0255 90.3853 22.8989 89.0101 22.8989C87.6349 22.8989 86.52 26.0255 86.52 29.8823C86.52 33.739 87.6349 36.8656 89.0101 36.8656Z" fill="#28CA7C"/>
<path d="M46.1983 34.516C43.9075 34.1494 41.9984 32.616 41.0522 30.5327C40.6538 31.416 40.438 32.3827 40.438 33.416C40.438 37.2494 43.4925 40.366 47.2773 40.366C48.29 40.366 49.2528 40.1327 50.116 39.7327C48.0742 38.7827 46.5635 36.8327 46.1983 34.4994V34.516Z" fill="#28CA7C"/>
<path d="M52.9397 20.7002C51.9271 20.7002 50.9643 20.9335 50.1011 21.3335C52.1429 22.2835 53.6536 24.2335 54.0188 26.5669C56.3096 26.9335 58.2187 28.4669 59.1649 30.5502C59.5633 29.6669 59.7791 28.7002 59.7791 27.6669C59.7791 23.8335 56.7246 20.7169 52.9397 20.7169V20.7002Z" fill="#28CA7C"/>
<path d="M46.1983 26.5505C46.5635 24.2172 48.0742 22.2672 50.116 21.3172C49.2528 20.9172 48.29 20.6838 47.2773 20.6838C43.5091 20.6838 40.438 23.8005 40.438 27.6338C40.438 28.6672 40.6538 29.6338 41.0522 30.5172C41.9818 28.4338 43.8909 26.9005 46.1983 26.5338V26.5505Z" fill="#28CA7C"/>
<path d="M54.0188 34.5176C53.6536 36.8509 52.1429 38.8009 50.1011 39.7509C50.9643 40.1509 51.9271 40.3842 52.9397 40.3842C56.708 40.3842 59.7791 37.2676 59.7791 33.4342C59.7791 32.4009 59.5633 31.4342 59.1649 30.5509C58.2353 32.6342 56.3262 34.1676 54.0188 34.5342V34.5176Z" fill="#28CA7C"/>
<path d="M50.1488 8C37.9309 8 28.0371 18.0667 28.0371 30.5C28.0371 42.9333 37.9309 53 50.1488 53C62.3667 53 72.2606 42.9333 72.2606 30.5C72.2606 18.0667 62.3501 8 50.1488 8ZM50.1488 44.75C42.413 44.75 36.1547 38.3667 36.1547 30.5C36.1547 22.6333 42.4296 16.25 50.1488 16.25C57.868 16.25 64.143 22.6333 64.143 30.5C64.143 38.3667 57.868 44.75 50.1488 44.75Z" fill="#28CA7C"/>
<path d="M20.7993 18.767C18.608 18.767 16.8318 23.7503 16.8318 29.8836C16.8318 36.017 18.608 41.0003 20.7993 41.0003C22.9905 41.0003 24.7668 36.017 24.7668 29.8836C24.7668 23.7503 22.9905 18.767 20.7993 18.767V18.767Z" fill="#28CA7C"/>
<path d="M11.0399 22.7842C9.64543 22.7842 8.5 25.9675 8.5 29.8842C8.5 33.8008 9.62883 36.9842 11.0399 36.9842C12.4509 36.9842 13.5797 33.8008 13.5797 29.8842C13.5797 25.9675 12.4509 22.7842 11.0399 22.7842V22.7842Z" fill="#28CA7C"/>
<path d="M79.5507 18.9503C77.3927 18.9503 75.6331 23.8503 75.6331 29.9003C75.6331 35.9503 77.3761 40.8503 79.5507 40.8503C81.7254 40.8503 83.4684 35.9503 83.4684 29.9003C83.4684 23.8503 81.7254 18.9503 79.5507 18.9503Z" fill="#28CA7C"/>
<path d="M89.0101 36.8656C90.3853 36.8656 91.5001 33.739 91.5001 29.8823C91.5001 26.0255 90.3853 22.8989 89.0101 22.8989C87.6349 22.8989 86.52 26.0255 86.52 29.8823C86.52 33.739 87.6349 36.8656 89.0101 36.8656Z" fill="#28CA7C"/>
<path d="M46.1983 34.516C43.9075 34.1494 41.9984 32.616 41.0522 30.5327C40.6538 31.416 40.438 32.3827 40.438 33.416C40.438 37.2494 43.4925 40.366 47.2773 40.366C48.29 40.366 49.2528 40.1327 50.116 39.7327C48.0742 38.7827 46.5635 36.8327 46.1983 34.4994V34.516Z" fill="#28CA7C"/>
<path d="M52.9397 20.7002C51.9271 20.7002 50.9643 20.9335 50.1011 21.3335C52.1429 22.2835 53.6536 24.2335 54.0188 26.5669C56.3096 26.9335 58.2187 28.4669 59.1649 30.5502C59.5633 29.6669 59.7791 28.7002 59.7791 27.6669C59.7791 23.8335 56.7246 20.7169 52.9397 20.7169V20.7002Z" fill="#28CA7C"/>
<path d="M46.1983 26.5505C46.5635 24.2172 48.0742 22.2672 50.116 21.3172C49.2528 20.9172 48.29 20.6838 47.2773 20.6838C43.5091 20.6838 40.438 23.8005 40.438 27.6338C40.438 28.6672 40.6538 29.6338 41.0522 30.5172C41.9818 28.4338 43.8909 26.9005 46.1983 26.5338V26.5505Z" fill="#28CA7C"/>
<path d="M54.0188 34.5176C53.6536 36.8509 52.1429 38.8009 50.1011 39.7509C50.9643 40.1509 51.9271 40.3842 52.9397 40.3842C56.708 40.3842 59.7791 37.2676 59.7791 33.4342C59.7791 32.4009 59.5633 31.4342 59.1649 30.5509C58.2353 32.6342 56.3262 34.1676 54.0188 34.5342V34.5176Z" fill="#28CA7C"/>
</svg>
