<svg width="103" height="63" viewBox="0 0 119 63" fill="none" xmlns="http://www.w3.org/2000/svg">
<path d="M59.3373 63C76.7369 63 90.8421 48.897 90.8421 31.5C90.8421 14.103 76.7369 0 59.3373 0C41.9377 0 27.8325 14.103 27.8325 31.5C27.8325 48.897 41.9377 63 59.3373 63Z" fill="#28CA7C"/>
<path d="M17.5417 46.2094C20.6677 46.2094 23.2018 39.2364 23.2018 30.6348C23.2018 22.0332 20.6677 15.0602 17.5417 15.0602C14.4157 15.0602 11.8816 22.0332 11.8816 30.6348C11.8816 39.2364 14.4157 46.2094 17.5417 46.2094Z" fill="#28CA7C"/>
<path d="M3.62527 40.5735C5.62745 40.5735 7.25054 36.1238 7.25054 30.6348C7.25054 25.1458 5.62745 20.696 3.62527 20.696C1.62309 20.696 0 25.1458 0 30.6348C0 36.1238 1.62309 40.5735 3.62527 40.5735Z" fill="#28CA7C"/>
<path d="M101.25 45.9521C104.324 45.9521 106.817 39.0943 106.817 30.6348C106.817 22.1752 104.324 15.3174 101.25 15.3174C98.1758 15.3174 95.6836 22.1752 95.6836 30.6348C95.6836 39.0943 98.1758 45.9521 101.25 45.9521Z" fill="#28CA7C"/>
<path d="M114.722 40.4099C116.686 40.4099 118.277 36.0334 118.277 30.6348C118.277 25.2362 116.686 20.8597 114.722 20.8597C112.759 20.8597 111.167 25.2362 111.167 30.6348C111.167 36.0334 112.759 40.4099 114.722 40.4099Z" fill="#28CA7C"/>
<path d="M59.3374 51.4477C70.3559 51.4477 79.2881 42.5168 79.2881 31.5C79.2881 20.4832 70.3559 11.5524 59.3374 11.5524C48.3189 11.5524 39.3867 20.4832 39.3867 31.5C39.3867 42.5168 48.3189 51.4477 59.3374 51.4477Z" fill="white"/>
<path d="M53.7241 37.1359C50.4497 36.6214 47.7366 34.47 46.4034 31.5702C45.8421 32.8096 45.5146 34.166 45.5146 35.6158C45.5146 40.9945 49.865 45.3441 55.2444 45.3441C56.6945 45.3441 58.0511 45.0401 59.2907 44.4555C56.3671 43.1225 54.2387 40.4098 53.7241 37.1359V37.1359Z" fill="#28CA7C"/>
<path d="M64.8805 25.9811C68.1549 26.4955 70.8681 28.647 72.2012 31.5468C72.7626 30.3073 73.09 28.951 73.09 27.5011C73.09 22.1225 68.7397 17.7728 63.3602 17.7728C61.9101 17.7728 60.5536 18.0768 59.314 18.6615C62.2376 19.9944 64.366 22.7071 64.8805 25.9811V25.9811Z" fill="#28CA7C"/>
<path d="M53.7241 25.9811C54.2387 22.7071 56.3905 19.9944 59.2907 18.6615C58.0511 18.1002 56.6945 17.7728 55.2444 17.7728C49.865 17.7728 45.5146 22.1225 45.5146 27.5011C45.5146 28.951 45.8187 30.3073 46.4034 31.5468C47.7366 28.6236 50.4497 26.4955 53.7241 25.9811V25.9811Z" fill="#28CA7C"/>
<path d="M64.8805 37.1359C64.366 40.4098 62.2142 43.1225 59.314 44.4555C60.5536 45.0167 61.9101 45.3441 63.3602 45.3441C68.7397 45.3441 73.09 40.9945 73.09 35.6158C73.09 34.166 72.7859 32.8096 72.2012 31.5702C70.8681 34.4934 68.1549 36.6214 64.8805 37.1359V37.1359Z" fill="#28CA7C"/>
</svg>
