<svg width="24" height="24" viewBox="0 0 41 40" fill="none" xmlns="http://www.w3.org/2000/svg">
<path d="M38.751 13.75C38.751 6.84615 33.1548 1.25 26.251 1.25C23.9625 1.25 21.8471 1.86538 20.001 2.94231C18.1548 1.88462 16.0394 1.25 13.751 1.25C6.84713 1.25 1.25098 6.84615 1.25098 13.75C1.25098 16.0385 1.86636 18.1538 2.94328 20C1.88559 21.8462 1.25098 23.9615 1.25098 26.25C1.25098 33.1538 6.84713 38.75 13.751 38.75C16.0394 38.75 18.1548 38.1346 20.001 37.0577C21.8471 38.1154 23.9625 38.75 26.251 38.75C33.1548 38.75 38.751 33.1538 38.751 26.25C38.751 23.9615 38.1356 21.8462 37.0587 20C38.1164 18.1538 38.751 16.0385 38.751 13.75Z" fill="#28CA7C"/>
</svg>
