<svg width="24" height="24" viewBox="0 0 24 24" fill="none" xmlns="http://www.w3.org/2000/svg">
<path d="M8.49989 2.53385C11.7844 2.53385 14.4659 5.20462 14.4659 8.5C14.4659 11.7954 11.7952 14.4662 8.49989 14.4662C5.20456 14.4662 2.53383 11.7846 2.53383 8.5C2.53383 5.21538 5.21532 2.53385 8.49989 2.53385ZM8.49989 1.5C4.6338 1.5 1.5 4.63385 1.5 8.5C1.5 12.3662 4.6338 15.5 8.49989 15.5C12.366 15.5 15.4998 12.3662 15.4998 8.5C15.4998 4.63385 12.366 1.5 8.49989 1.5Z" fill="white"/>
<path d="M15.4999 2.53385C18.7844 2.53385 21.4659 5.20462 21.4659 8.5C21.4659 11.7954 18.7952 14.4662 15.4999 14.4662C12.2046 14.4662 9.53383 11.7954 9.53383 8.5C9.53383 5.20462 12.2153 2.53385 15.4999 2.53385ZM15.4999 1.5C11.6338 1.5 8.5 4.63385 8.5 8.5C8.5 12.3662 11.6338 15.5 15.4999 15.5C19.366 15.5 22.4998 12.3662 22.4998 8.5C22.4998 4.63385 19.366 1.5 15.4999 1.5Z" fill="white"/>
<path d="M8.49989 9.53385C11.7844 9.53385 14.4659 12.2046 14.4659 15.5C14.4659 18.7954 11.7952 21.4662 8.49989 21.4662C5.20456 21.4662 2.53383 18.7846 2.53383 15.5C2.53383 12.2154 5.21532 9.53385 8.49989 9.53385ZM8.49989 8.5C4.6338 8.5 1.5 11.6338 1.5 15.5C1.5 19.3662 4.6338 22.5 8.49989 22.5C12.366 22.5 15.4998 19.3662 15.4998 15.5C15.4998 11.6338 12.366 8.5 8.49989 8.5Z" fill="white"/>
<path d="M15.4999 9.53385C18.7844 9.53385 21.4659 12.2046 21.4659 15.5C21.4659 18.7954 18.7952 21.4662 15.4999 21.4662C12.2046 21.4662 9.53383 18.7954 9.53383 15.5C9.53383 12.2046 12.2046 9.53385 15.4999 9.53385ZM15.4999 8.5C11.6338 8.5 8.5 11.6338 8.5 15.5C8.5 19.3662 11.6338 22.5 15.4999 22.5C19.366 22.5 22.4998 19.3662 22.4998 15.5C22.4998 11.6338 19.366 8.5 15.4999 8.5Z" fill="white"/>
</svg>
