<svg width="40" height="40" viewBox="0 0 40 40" fill="none" xmlns="http://www.w3.org/2000/svg">
<path d="M10.5 24.2085V14.5823C10.5 13.0119 11.7118 11.7242 13.1877 11.7242H28.164C28.4126 11.7242 28.5214 11.3945 28.3349 11.2217L24.3112 7.5" stroke="#28CA7C" stroke-miterlimit="10" stroke-linecap="round"/>
<path d="M29.5002 15.7914V25.4176C29.5002 26.988 28.2884 28.2757 26.8125 28.2757H11.8361C11.5875 28.2757 11.4788 28.6054 11.6652 28.7782L15.689 32.4999" stroke="#28CA7C" stroke-miterlimit="10" stroke-linecap="round"/>
<path d="M19.8566 14.0732L20.1129 14.2262L20.3691 14.0732C20.983 13.7068 21.7012 13.5 22.4838 13.5C24.8244 13.5 26.7258 15.4046 26.7258 17.7547C26.7258 18.4805 26.5489 19.159 26.2251 19.7641L26.0973 20.0029L26.2276 20.2405C26.5477 20.824 26.7258 21.5168 26.7258 22.2453C26.7258 24.5954 24.8244 26.5 22.4838 26.5C21.7167 26.5 20.9822 26.2927 20.3691 25.9268L20.1129 25.7738L19.8566 25.9268C19.2428 26.2932 18.5246 26.5 17.7419 26.5C15.4014 26.5 13.5 24.5954 13.5 22.2453C13.5 21.5195 13.6769 20.841 14.0007 20.2359L14.1285 19.9971L13.9982 19.7595C13.6781 19.176 13.5 18.4833 13.5 17.7547C13.5 15.4046 15.4014 13.5 17.7419 13.5C18.509 13.5 19.2435 13.7073 19.8566 14.0732Z" fill="#28CA7C" stroke="#28CA7C"/>
<path d="M20.0157 24C19.4645 24 19.0314 23.6023 19.0314 23.0962V19.2639L18.7164 19.5892C18.362 19.9689 17.732 19.9869 17.3186 19.6435C16.9249 19.3 16.8855 18.7396 17.2596 18.36L19.2872 16.2993C19.5629 16.0281 19.996 15.9197 20.37 16.0643C20.7441 16.1908 21 16.5343 21 16.9139V23.0781C21 23.5842 20.5669 23.9819 20.0157 23.9819V24Z" fill="white"/>
</svg>
