<svg width="74" height="74" viewBox="0 0 114 114" fill="none" xmlns="http://www.w3.org/2000/svg">
<g filter="url(#filter0_d_44_2844)">
<path d="M77.0584 52.1119L48.7812 35.5817C45.8385 33.8589 42.1602 36.0008 42.1602 39.4465V72.5534C42.1602 75.9991 45.8385 78.141 48.7812 76.4182L77.0584 59.888C80.0011 58.1652 80.0011 53.8347 77.0584 52.1119Z" fill="white"/>
<path d="M72.6817 13.5943C87.4621 13.5943 99.4938 25.8612 99.4938 40.9306C99.4938 45.433 98.4123 49.8895 96.3394 53.8406L95.2129 56L96.3394 58.1593C98.4123 62.1104 99.4938 66.5669 99.4938 71.0694C99.4938 86.1388 87.4621 98.4057 72.6817 98.4057C67.9952 98.4057 63.3538 97.1192 59.2531 94.7302L57 93.3978L54.7469 94.7302C50.6462 97.1652 46.0048 98.4057 41.3183 98.4057C26.5379 98.4057 14.5062 86.1388 14.5062 71.0694C14.5062 66.5669 15.5877 62.1104 17.6606 58.1593L18.7872 56L17.6606 53.8406C15.5877 49.8895 14.5062 45.433 14.5062 40.9306C14.5062 25.8612 26.5379 13.5943 41.3183 13.5943C46.0048 13.5943 50.6462 14.8807 54.7469 17.2698L57 18.6021L59.2531 17.2698C63.3538 14.8348 67.9952 13.5943 72.6817 13.5943ZM72.6817 9C66.9588 9 61.6414 10.562 57 13.3186C52.4036 10.608 47.0412 9 41.3183 9C24.0144 9 10 23.2884 10 40.9306C10 46.3978 11.3519 51.4975 13.6951 56C11.3519 60.5024 10 65.6021 10 71.0694C10 88.7116 24.0144 103 41.3183 103C47.0412 103 52.3586 101.438 57 98.6813C61.5964 101.392 66.9588 103 72.6817 103C89.9856 103 104 88.7116 104 71.0694C104 65.6021 102.648 60.5024 100.305 56C102.648 51.4975 104 46.3978 104 40.9306C104 23.2884 89.9856 9 72.6817 9Z" fill="white"/>
</g>
<defs>
<filter id="filter0_d_44_2844" x="0" y="0" width="114" height="114" filterUnits="userSpaceOnUse" color-interpolation-filters="sRGB">
<feFlood flood-opacity="0" result="BackgroundImageFix"/>
<feColorMatrix in="SourceAlpha" type="matrix" values="0 0 0 0 0 0 0 0 0 0 0 0 0 0 0 0 0 0 127 0" result="hardAlpha"/>
<feOffset dy="1"/>
<feGaussianBlur stdDeviation="5"/>
<feComposite in2="hardAlpha" operator="out"/>
<feColorMatrix type="matrix" values="0 0 0 0 0 0 0 0 0 0 0 0 0 0 0 0 0 0 0.25 0"/>
<feBlend mode="normal" in2="BackgroundImageFix" result="effect1_dropShadow_44_2844"/>
<feBlend mode="normal" in="SourceGraphic" in2="effect1_dropShadow_44_2844" result="shape"/>
</filter>
</defs>
</svg>
