<svg width="40" height="40" viewBox="0 0 40 40" fill="none" xmlns="http://www.w3.org/2000/svg">
<path d="M35 15.19C35 9.56 30.52 5 25 5C23.18 5 21.47 5.51 20 6.37C18.53 5.5 16.82 5 15 5C9.48 5 5 9.56 5 15.19C5 16.93 5.43001 18.57 6.18001 20C5.43001 21.43 5 23.07 5 24.81C5 30.44 9.48 35 15 35C16.82 35 18.53 34.49 20 33.63C21.47 34.5 23.18 35 25 35C30.52 35 35 30.44 35 24.81C35 23.07 34.57 21.43 33.82 20C34.57 18.57 35 16.93 35 15.19ZM14.96 11.03H20C20.28 11.03 20.5 11.25 20.5 11.53C20.5 11.81 20.28 12.03 20 12.03H14.96C14.68 12.03 14.46 11.81 14.46 11.53C14.46 11.25 14.68 11.03 14.96 11.03ZM24.87 28.69H19.83C19.55 28.69 19.33 28.47 19.33 28.19C19.33 27.91 19.55 27.69 19.83 27.69H24.87C25.15 27.69 25.37 27.91 25.37 28.19C25.37 28.47 25.15 28.69 24.87 28.69ZM25.04 25.11H14.96C14.68 25.11 14.46 24.89 14.46 24.61C14.46 24.33 14.68 24.11 14.96 24.11H25.04C25.32 24.11 25.54 24.33 25.54 24.61C25.54 24.89 25.32 25.11 25.04 25.11ZM25.04 20.5H14.96C14.68 20.5 14.46 20.28 14.46 20C14.46 19.72 14.68 19.5 14.96 19.5H25.04C25.32 19.5 25.54 19.72 25.54 20C25.54 20.28 25.32 20.5 25.04 20.5ZM25.04 15.89H14.96C14.68 15.89 14.46 15.67 14.46 15.39C14.46 15.11 14.68 14.89 14.96 14.89H25.04C25.32 14.89 25.54 15.11 25.54 15.39C25.54 15.67 25.32 15.89 25.04 15.89Z" fill="white"/>
</svg>
