<svg width="38" height="38" viewBox="0 0 25 24" fill="none" xmlns="http://www.w3.org/2000/svg">
<path d="M15.3918 2.95877C18.5981 2.95877 21.208 5.5187 21.208 8.66347C21.208 9.66059 20.9343 10.6481 20.426 11.5206L20.1425 12L20.426 12.4794C20.9441 13.3519 21.208 14.3394 21.208 15.3365C21.208 18.4813 18.5981 21.0412 15.3918 21.0412C14.4338 21.0412 13.4857 20.8111 12.645 20.3701L12.1856 20.1304L11.7261 20.3701C10.8855 20.8111 9.93727 21.0412 8.9793 21.0412C5.77304 21.0412 3.16307 18.4813 3.16307 15.3365C3.16307 14.3394 3.43678 13.3519 3.94509 12.4794L4.22857 12L3.94509 11.5206C3.427 10.6481 3.16307 9.66059 3.16307 8.66347C3.1533 5.5187 5.76327 2.95877 8.96953 2.95877C9.92749 2.95877 10.8757 3.18888 11.7163 3.62991L12.1758 3.86961L12.6352 3.62991C13.4759 3.18888 14.4241 2.95877 15.382 2.95877M15.382 2C14.2188 2 13.1337 2.28763 12.1758 2.78619C11.2178 2.28763 10.1328 2 8.96953 2C5.21586 2 2.17578 4.98178 2.17578 8.66347C2.17578 9.88111 2.50814 11.0125 3.09465 12C2.51791 12.9779 2.17578 14.1189 2.17578 15.3365C2.17578 19.0182 5.21586 22 8.96953 22C10.1328 22 11.2178 21.7124 12.1758 21.2138C13.1337 21.7124 14.2188 22 15.382 22C19.1357 22 22.1758 19.0182 22.1758 15.3365C22.1758 14.1189 21.8434 12.9875 21.2569 12C21.8337 11.0221 22.1758 9.88111 22.1758 8.66347C22.1758 4.98178 19.1357 2 15.382 2V2Z" fill="#28CA72"/>
<path d="M12.1068 6.6022C12.8693 6.6022 13.5927 6.89941 14.1303 7.42674C14.4822 7.7719 14.7364 8.21293 14.8732 8.69232L15.0198 9.22923L15.5673 9.37305C16.056 9.49769 16.4959 9.74697 16.8576 10.1017C17.9719 11.1947 17.9719 12.978 16.8576 14.0806C16.5154 14.4162 16.1147 14.6463 15.665 14.7805L15.1665 14.9339L15.0198 15.4229C14.883 15.8735 14.6386 16.2666 14.3063 16.5926C13.7686 17.1199 13.0453 17.4172 12.2828 17.4172C11.5203 17.4172 10.797 17.1199 10.2593 16.5926C9.90743 16.2474 9.65328 15.8064 9.51642 15.327L9.3698 14.7901L8.82239 14.6463C8.33363 14.5217 7.89374 14.2724 7.53206 13.9176C6.99443 13.3903 6.6914 12.6808 6.6914 11.933C6.6914 11.1851 6.99443 10.4756 7.53206 9.94831C7.87419 9.61274 8.27498 9.38264 8.72463 9.24841L9.22317 9.10459L9.3698 8.61562C9.50665 8.16499 9.75103 7.7719 10.0834 7.44591C10.621 6.91859 11.3444 6.62137 12.1068 6.62137M12.1068 5.6626C11.1196 5.6626 10.142 6.02693 9.38935 6.76519C8.92991 7.21581 8.60733 7.76231 8.43138 8.33757C7.84487 8.51015 7.28768 8.82655 6.82825 9.27717C5.32287 10.7537 5.32287 13.141 6.82825 14.6079C7.32678 15.0969 7.92307 15.4133 8.55846 15.5859C8.72463 16.2091 9.05699 16.7939 9.55552 17.2829C10.3082 18.0212 11.2857 18.3855 12.273 18.3855C13.2603 18.3855 14.2378 18.0212 14.9905 17.2829C15.45 16.8323 15.7725 16.2858 15.9485 15.7105C16.535 15.538 17.0922 15.2216 17.5516 14.7709C19.057 13.2944 19.057 10.9071 17.5516 9.44016C17.0531 8.95119 16.4568 8.63479 15.8214 8.46221C15.6552 7.83901 15.3229 7.25416 14.8243 6.76519C14.0717 6.02693 13.0941 5.6626 12.1068 5.6626V5.6626Z" fill="#28CA72"/>
<path d="M12.1873 10.6863C12.549 10.6863 12.8814 10.8205 13.1355 11.0698C13.3897 11.3191 13.5265 11.6451 13.5265 11.9998C13.5265 12.3546 13.3897 12.6806 13.1355 12.9298C12.8814 13.1791 12.549 13.3133 12.1873 13.3133C11.8256 13.3133 11.4933 13.1791 11.2391 12.9298C10.985 12.6806 10.8481 12.3546 10.8481 11.9998C10.8481 11.6451 10.985 11.3191 11.2391 11.0698C11.4933 10.8205 11.8256 10.6863 12.1873 10.6863ZM12.1873 9.72754C11.591 9.72754 11.0045 9.94806 10.5451 10.3891C9.63601 11.2808 9.63601 12.7189 10.5451 13.601C10.9948 14.042 11.591 14.2625 12.1873 14.2625C12.7836 14.2625 13.3701 14.042 13.8296 13.601C14.7386 12.7093 14.7386 11.2712 13.8296 10.3891C13.3799 9.94806 12.7836 9.72754 12.1873 9.72754Z" fill="#28CA72"/>
</svg>
