<svg width="40" height="40" viewBox="0 0 40 40" fill="none" xmlns="http://www.w3.org/2000/svg">
<path d="M30.3463 29.65L10.3463 9.65C10.1563 9.45 9.83627 9.45 9.64627 9.65C9.45627 9.85 9.44627 10.16 9.64627 10.35L29.6463 30.35C29.7463 30.45 29.8763 30.5 29.9963 30.5C30.1163 30.5 30.2563 30.45 30.3463 30.35C30.5463 30.15 30.5463 29.84 30.3463 29.64V29.65Z" fill="#DE1B4A"/>
<path d="M16.5964 12.98C17.3864 12.98 18.1664 13.19 18.8464 13.6C19.0064 13.69 19.1964 13.69 19.3564 13.6C20.0464 13.2 20.8264 12.98 21.6064 12.98C21.8864 12.98 22.1064 12.76 22.1064 12.48C22.1064 12.2 21.8864 11.98 21.6064 11.98C20.7364 11.98 19.8764 12.19 19.0964 12.6C18.3164 12.2 17.4564 11.98 16.5864 11.98C15.6664 11.98 14.7864 12.21 14.0264 12.63L14.7764 13.38C15.3364 13.13 15.9464 12.99 16.5864 12.99L16.5964 12.98Z" fill="#DE1B4A"/>
<path d="M21.6062 26.98C20.8162 26.98 20.0462 26.77 19.3562 26.36C19.1962 26.27 19.0062 26.27 18.8462 26.36C18.1562 26.76 17.3862 26.98 16.5962 26.98C14.1062 26.98 12.0862 24.92 12.0862 22.38C12.0862 21.62 12.2662 20.87 12.6262 20.21C12.7062 20.06 12.7062 19.89 12.6262 19.74C12.2762 19.08 12.0862 18.33 12.0862 17.57C12.0862 16.43 12.5062 15.4 13.1862 14.6L12.4662 13.88C11.6062 14.87 11.0862 16.16 11.0862 17.57C11.0862 18.4 11.2662 19.23 11.6162 19.97C11.2662 20.72 11.0862 21.54 11.0862 22.37C11.0862 25.46 13.5562 27.97 16.5962 27.97C17.4662 27.97 18.3262 27.76 19.1062 27.35C19.8862 27.75 20.7462 27.97 21.6162 27.97C21.8962 27.97 22.1162 27.75 22.1162 27.47C22.1162 27.19 21.8962 26.97 21.6162 26.97L21.6062 26.98Z" fill="#DE1B4A"/>
<path d="M25.5862 23.83V16.12C25.5862 15.84 25.3662 15.62 25.0862 15.62C24.8062 15.62 24.5862 15.84 24.5862 16.12V23.17L25.5062 24.09C25.5562 24.01 25.5862 23.93 25.5862 23.83Z" fill="#DE1B4A"/>
<path d="M29.0862 27.12V12.83C29.0862 12.55 28.8662 12.33 28.5862 12.33C28.3062 12.33 28.0862 12.55 28.0862 12.83V26.67L28.9062 27.49C29.0162 27.4 29.0862 27.27 29.0862 27.12Z" fill="#DE1B4A"/>
</svg>
