<svg width="40" height="40" viewBox="0 0 40 40" fill="none" xmlns="http://www.w3.org/2000/svg">
<path d="M13.7751 25.1778V15.5158C13.7751 13.9396 15.0012 12.6472 16.4946 12.6472H31.6481C31.8996 12.6472 32.0096 12.3162 31.821 12.1428L27.7497 8.40723" stroke="#28CA7C" stroke-miterlimit="10" stroke-linecap="round"/>
<path d="M33 16.7295V26.3915C33 27.9676 31.774 29.2601 30.2806 29.2601H15.1271C14.8756 29.2601 14.7656 29.5911 14.9542 29.7645L19.0255 33.5" stroke="#28CA7C" stroke-miterlimit="10" stroke-linecap="round"/>
<path d="M13.5345 7.54405L13.7908 7.69699L14.047 7.54405C14.6295 7.19638 15.3112 7 16.0544 7C18.2763 7 20.0816 8.80815 20.0816 11.0394C20.0816 11.7286 19.9136 12.3727 19.6063 12.9471L19.4784 13.186L19.6087 13.4235C19.9124 13.9771 20.0816 14.6347 20.0816 15.3266C20.0816 17.5579 18.2763 19.366 16.0544 19.366C15.326 19.366 14.6287 19.1692 14.047 18.822L13.7908 18.669L13.5345 18.822C12.952 19.1696 12.2703 19.366 11.5272 19.366C9.30518 19.366 7.5 17.5579 7.5 15.3266C7.5 14.6374 7.66791 13.9933 7.9753 13.4189L8.10312 13.1801L7.97284 12.9425C7.66915 12.3889 7.5 11.7313 7.5 11.0394C7.5 8.80814 9.30518 7 11.5272 7C12.2555 7 12.9528 7.19684 13.5345 7.54405Z" fill="#28CA7C" stroke="#28CA7C"/>
<path d="M13.6338 16.6664C13.1937 16.6664 12.8479 16.3196 12.8479 15.8783V12.5368L12.5964 12.8205C12.3134 13.1515 11.8104 13.1673 11.4802 12.8678C11.1659 12.5683 11.1344 12.0797 11.4331 11.7487L13.0522 9.95185C13.2723 9.71543 13.6181 9.62086 13.9168 9.74695C14.2155 9.85729 14.4198 10.1568 14.4198 10.4877V15.8625C14.4198 16.3039 14.074 16.6506 13.6338 16.6506V16.6664Z" fill="white"/>
</svg>
