<svg width="80" height="80" viewBox="0 0 40 40" fill="none" xmlns="http://www.w3.org/2000/svg">
<path d="M26.2848 18.739L17.4401 13.5338C16.5197 12.9912 15.3691 13.6657 15.3691 14.7508V25.176C15.3691 26.261 16.5197 26.9355 17.4401 26.393L26.2848 21.1877C27.2052 20.6452 27.2052 19.2816 26.2848 18.739Z" fill="#28CA7C"/>
<path d="M25.0048 6.46628C29.722 6.46628 33.5618 10.3812 33.5618 15.1906C33.5618 16.6276 33.2167 18.0498 32.5551 19.3108L32.1956 20L32.5551 20.6891C33.2167 21.9501 33.5618 23.3724 33.5618 24.8094C33.5618 29.6188 29.722 33.5337 25.0048 33.5337C23.5091 33.5337 22.0278 33.1232 20.7191 32.3607L20 31.9355L19.2809 32.3607C17.9722 33.1378 16.4909 33.5337 14.9952 33.5337C10.2781 33.5337 6.43816 29.6188 6.43816 24.8094C6.43816 23.3724 6.78332 21.9501 7.44488 20.6891L7.80442 20L7.44488 19.3108C6.78332 18.0498 6.43816 16.6276 6.43816 15.1906C6.43816 10.3812 10.2781 6.46628 14.9952 6.46628C16.4909 6.46628 17.9722 6.87683 19.2809 7.63929L20 8.06451L20.7191 7.63929C22.0278 6.86216 23.5091 6.46628 25.0048 6.46628ZM25.0048 5C23.1783 5 21.4813 5.49853 20 6.37829C18.5331 5.51319 16.8217 5 14.9952 5C9.47268 5 5 9.56011 5 15.1906C5 16.9355 5.43145 18.563 6.17929 20C5.43145 21.4369 5 23.0645 5 24.8094C5 30.4399 9.47268 35 14.9952 35C16.8217 35 18.5187 34.5015 20 33.6217C21.4669 34.4868 23.1783 35 25.0048 35C30.5273 35 35 30.4399 35 24.8094C35 23.0645 34.5686 21.4369 33.8207 20C34.5686 18.563 35 16.9355 35 15.1906C35 9.56011 30.5273 5 25.0048 5Z" fill="#28CA7C"/>
</svg>
