<svg width="78" height="32" viewBox="0 0 78 32" fill="none" xmlns="http://www.w3.org/2000/svg">
<path d="M0.5 9.02H7.56C7.84 9.02 8.06 8.79 8.06 8.51C8.06 8.23 7.83 8 7.56 8H0.5C0.23 8 0 8.23 0 8.51C0 8.79 0.23 9.02 0.5 9.02Z" fill="#28CA7C"/>
<path d="M0.5 12.208H7.56C7.84 12.208 8.06 11.978 8.06 11.698C8.06 11.418 7.83 11.188 7.56 11.188H0.5C0.22 11.188 0 11.418 0 11.698C0 11.978 0.23 12.208 0.5 12.208Z" fill="#28CA7C"/>
<path d="M8.07 14.896C8.07 14.616 7.84 14.386 7.57 14.386H0.5C0.22 14.386 0 14.616 0 14.896C0 15.176 0.23 15.406 0.5 15.406H7.56C7.84 15.406 8.06 15.176 8.06 14.896H8.07Z" fill="#28CA7C"/>
<path d="M10.19 8.05004C9.97004 8.01006 9.75004 8.07002 9.58004 8.21993C9.41004 8.35984 9.31004 8.56971 9.31004 8.79957V16.5747C9.15004 16.5447 8.99004 16.5247 8.83004 16.5247C8.37004 16.5247 7.94004 16.6546 7.57004 16.8645C7.20004 16.6446 6.77004 16.5247 6.31004 16.5247C4.92004 16.5247 3.79004 17.664 3.79004 19.0631C3.79004 19.4929 3.90004 19.9026 4.09004 20.2624C3.90004 20.6221 3.79004 21.0219 3.79004 21.4616C3.79004 22.8607 4.92004 24 6.31004 24C6.77004 24 7.20004 23.8701 7.57004 23.6602C7.94004 23.8801 8.37004 24 8.83004 24C10.22 24 11.35 22.8607 11.35 21.4616C11.35 21.0319 11.24 20.6221 11.05 20.2624C11.24 19.9026 11.35 19.5028 11.35 19.0631C11.35 18.2237 10.94 17.4941 10.32 17.0244V9.10937C11.31 9.36921 13 10.1987 13 12.857C13 13.1368 13.23 13.3667 13.5 13.3667C13.77 13.3667 14 13.1368 14 12.857C14 9.02942 11.08 8.20994 10.19 8.05004Z" fill="#28CA7C"/>
<path d="M24.452 12.9H26.734V11.962H20.91V12.9H23.346V13.88C23.346 16.428 22.408 18.57 20.616 19.578L21.316 20.446C22.618 19.69 23.5 18.332 23.92 16.624C24.368 18.108 25.236 19.326 26.468 20.012L27.14 19.13C25.362 18.206 24.452 16.176 24.452 13.88V12.9ZM30.346 10.464V15.546H28.694V10.758H27.616V22.42H28.694V16.498H30.346V23.036H31.452V10.464H30.346ZM41.5169 14.79H43.1129V18.234H44.2189V10.492H43.1129V13.852H41.5169V10.73H40.4249V17.828H41.5169V14.79ZM39.9069 16.372C38.2969 15.756 37.3589 14.342 37.3589 12.956V11.262H36.2529V12.956C36.2529 14.356 35.2729 15.98 33.6349 16.708L34.2509 17.604C35.4689 17.058 36.3649 15.994 36.8129 14.818C37.2609 15.882 38.1149 16.778 39.2909 17.254L39.9069 16.372ZM40.0749 22.14C38.1989 22.14 37.0229 21.636 37.0229 20.768C37.0229 19.9 38.1989 19.41 40.0749 19.41C41.9789 19.41 43.1409 19.9 43.1409 20.768C43.1409 21.636 41.9789 22.14 40.0749 22.14ZM40.0749 18.514C37.4989 18.514 35.8889 19.34 35.8889 20.768C35.8889 22.196 37.4989 23.022 40.0749 23.022C42.6649 23.022 44.2749 22.196 44.2749 20.768C44.2749 19.34 42.6649 18.514 40.0749 18.514ZM47.7598 19.998H55.3058V23.05H56.4538V19.074H47.7598V19.998ZM49.0758 11.906H55.2638V14.342H49.0758V11.906ZM52.7578 16.848V15.252H56.3978V10.996H47.9558V15.252H51.6098V16.848H46.4858V17.772H57.8538V16.848H52.7578ZM60.6387 20.222H68.2267V22.924H69.3747V19.284H60.6387V20.222ZM65.6507 17.38V16.064H69.5707V15.168H61.9687V13.852H69.3047V10.8H60.8067V11.696H68.1707V12.998H60.8347V16.064H64.4887V17.38H59.3647V18.318H70.7607V17.38H65.6507Z" fill="#28CA7C"/>
</svg>
