<svg width="38" height="38" viewBox="0 0 40 40" fill="none" xmlns="http://www.w3.org/2000/svg">
<path d="M27.9819 8.5C24.8786 8.5 22.064 9.73935 20 11.7281C17.936 9.73935 15.1214 8.5 12.0181 8.5C5.65285 8.5 0.5 13.6447 0.5 20C0.5 26.3553 5.65285 31.5 12.0181 31.5C15.1214 31.5 17.936 30.2607 20 28.2719C22.064 30.2607 24.8786 31.5 27.9819 31.5C34.3472 31.5 39.5 26.3553 39.5 20C39.5 13.6447 34.3472 8.5 27.9819 8.5ZM20 26.0959C18.701 24.3954 17.9215 22.2914 17.9215 20C17.9215 17.7086 18.701 15.5902 20 13.9041C21.299 15.6046 22.0785 17.7086 22.0785 20C22.0785 22.2914 21.299 24.4098 20 26.0959ZM1.94338 20C1.94338 14.4518 6.46114 9.9411 12.0181 9.9411C14.7461 9.9411 17.2143 11.0363 19.0329 12.7945C17.4452 14.7688 16.4926 17.2619 16.4926 20C16.4926 22.7381 17.4452 25.2312 19.0329 27.2055C17.2143 28.9637 14.7461 30.0589 12.0181 30.0589C6.46114 30.0589 1.94338 25.5482 1.94338 20V20ZM27.9819 30.0589C25.2539 30.0589 22.7857 28.9637 20.9671 27.2055C22.5548 25.2312 23.5074 22.7381 23.5074 20C23.5074 17.2619 22.5548 14.7688 20.9671 12.7945C22.7857 11.0363 25.2539 9.9411 27.9819 9.9411C33.5389 9.9411 38.0566 14.4518 38.0566 20C38.0566 25.5482 33.5389 30.0589 27.9819 30.0589Z" fill="#28CA7C"/>
</svg>
