<svg width="24" height="24" viewBox="0 0 24 24" fill="none" xmlns="http://www.w3.org/2000/svg">
<mask id="path-1-inside-1_643_3835" fill="white">
<path d="M12 7.22951C15.6203 7.22951 19.0166 9.03689 21.032 12C19.0166 14.9631 15.6203 16.7705 12 16.7705C10.0966 16.7705 8.21801 16.2664 6.55095 15.3197C5.12026 14.4959 3.88863 13.3648 2.96801 12C3.88863 10.6475 5.12026 9.5041 6.55095 8.68033C8.20557 7.73361 10.0966 7.22951 12 7.22951M12 6C9.78554 6 7.72038 6.59016 5.92891 7.62295C4.08768 8.66803 2.56991 10.1803 1.5 12C2.56991 13.8197 4.08768 15.332 5.92891 16.377C7.72038 17.3975 9.78554 18 12 18C16.4911 18 20.3975 15.5902 22.5 12C20.3975 8.40984 16.4911 6 12 6V6Z"/>
</mask>
<path d="M21.032 12L21.8589 12.5624L22.2414 12L21.8589 11.4376L21.032 12ZM6.55095 15.3197L6.05196 16.1863L6.05713 16.1892L6.55095 15.3197ZM2.96801 12L2.14135 11.4373L1.76005 11.9975L2.13899 12.5592L2.96801 12ZM6.55095 8.68033L6.05432 7.81236L6.05196 7.81372L6.55095 8.68033ZM12 6H13V5H12V6ZM5.92891 7.62295L6.42255 8.49264L6.42836 8.48929L5.92891 7.62295ZM1.5 12L0.637964 11.4932L0.339955 12L0.637964 12.5068L1.5 12ZM5.92891 16.377L6.42388 15.5081L6.42254 15.5074L5.92891 16.377ZM22.5 12L23.3629 12.5053L23.6589 12L23.3629 11.4947L22.5 12ZM12 6H11V7H12V6ZM12 8.22951C15.2892 8.22951 18.3759 9.873 20.2051 12.5624L21.8589 11.4376C19.6573 8.20077 15.9514 6.22951 12 6.22951V8.22951ZM20.2051 11.4376C18.3759 14.127 15.2892 15.7705 12 15.7705V17.7705C15.9514 17.7705 19.6573 15.7992 21.8589 12.5624L20.2051 11.4376ZM12 15.7705C10.2731 15.7705 8.56427 15.313 7.04477 14.4501L6.05713 16.1892C7.87175 17.2198 9.92004 17.7705 12 17.7705V15.7705ZM7.04993 14.4531C5.74677 13.7027 4.62964 12.6751 3.79703 11.4408L2.13899 12.5592C3.14761 14.0544 4.49375 15.2891 6.05196 16.1863L7.04993 14.4531ZM3.79467 12.5627C4.63019 11.3353 5.7497 10.2956 7.04993 9.54694L6.05196 7.81372C4.49082 8.7126 3.14706 9.95983 2.14135 11.4373L3.79467 12.5627ZM7.04757 9.54829C8.55151 8.68779 10.2714 8.22951 12 8.22951V6.22951C9.92174 6.22951 7.85963 6.77942 6.05433 7.81236L7.04757 9.54829ZM12 5C9.60461 5 7.36788 5.6391 5.42946 6.75661L6.42836 8.48929C8.07288 7.54122 9.96648 7 12 7V5ZM5.43528 6.75328C3.43823 7.8868 1.79478 9.52567 0.637964 11.4932L2.36204 12.5068C3.34503 10.835 4.73712 9.44926 6.42254 8.49262L5.43528 6.75328ZM0.637964 12.5068C1.79478 14.4743 3.43823 16.1132 5.43528 17.2467L6.42254 15.5074C4.73712 14.5507 3.34503 13.165 2.36204 11.4932L0.637964 12.5068ZM5.43394 17.246C7.36639 18.3468 9.60099 19 12 19V17C9.9701 17 8.07437 16.4483 6.42388 15.5081L5.43394 17.246ZM12 19C16.8582 19 21.0872 16.3914 23.3629 12.5053L21.6371 11.4947C19.7079 14.789 16.124 17 12 17V19ZM23.3629 11.4947C21.0872 7.60863 16.8582 5 12 5V7C16.124 7 19.7079 9.21104 21.6371 12.5053L23.3629 11.4947ZM13 6V6H11V6H13Z" fill="#28CA7C" mask="url(#path-1-inside-1_643_3835)"/>
<path d="M15.6723 12.0002C15.6723 9.97257 13.9997 8.32802 11.9626 8.32802C9.92542 8.32802 8.25287 9.97257 8.25287 12.0002C8.25287 14.0277 9.92542 15.6723 11.9626 15.6723C13.9997 15.6723 15.6723 14.0277 15.6723 12.0002ZM8.00879 12.0002C8.00879 9.8474 9.76988 8.09851 11.9626 8.09851C14.1553 8.09851 15.9164 9.8474 15.9164 12.0002C15.9164 14.1529 14.1553 15.9018 11.9626 15.9018C9.76988 15.9018 8.00879 14.1529 8.00879 12.0002Z" stroke="#28CA7C"/>
</svg>
