<svg width="40" height="40" viewBox="0 0 40 40" fill="none" xmlns="http://www.w3.org/2000/svg">
<path d="M35 15.19C35 9.56 30.52 5 25 5C23.18 5 21.47 5.51 20 6.37C18.53 5.5 16.82 5 15 5C9.48 5 5 9.56 5 15.19C5 16.93 5.43 18.57 6.18 20C5.43 21.43 5 23.07 5 24.81C5 30.44 9.48 35 15 35C16.82 35 18.53 34.49 20 33.63C21.47 34.5 23.18 35 25 35C30.52 35 35 30.44 35 24.81C35 23.07 34.57 21.43 33.82 20C34.57 18.57 35 16.93 35 15.19ZM25.44 17.69C24.82 18.66 23.88 19.32 22.84 19.59C22.77 19.61 22.71 19.65 22.67 19.72L17.44 29.14C17.37 29.27 17.2 29.33 17.06 29.26L14.01 27.76C13.87 27.69 13.81 27.53 13.87 27.39L17.73 17.33C17.76 17.26 17.75 17.18 17.73 17.12C17.27 16.1 17.19 14.92 17.55 13.81C17.6 13.64 17.8 13.56 17.96 13.64L25.34 17.27C25.5 17.35 25.56 17.55 25.46 17.7L25.44 17.69ZM25.94 16.64C25.89 16.81 25.68 16.89 25.53 16.81L18.15 13.18C17.99 13.1 17.93 12.9 18.03 12.75C19.23 10.87 21.63 10.15 23.67 11.15C25.7 12.15 26.64 14.52 25.95 16.64H25.94Z" fill="white"/>
</svg>
