<svg width="40" height="40" viewBox="0 0 40 40" fill="none" xmlns="http://www.w3.org/2000/svg">
<path d="M17.9722 14.7507V25.2639" stroke="#28CA7C" stroke-miterlimit="10" stroke-linecap="round"/>
<path d="M22.0278 14.7507V25.2639" stroke="#28CA7C" stroke-miterlimit="10" stroke-linecap="round"/>
<path d="M20.4646 32.7911L20.4674 32.7927C21.85 33.5982 23.4178 34.0337 25.0048 34.0337C30.0072 34.0337 34.0618 29.8857 34.0618 24.8094C34.0618 23.2933 33.6979 21.7913 32.9981 20.4573C32.998 20.4572 32.998 20.457 32.9979 20.4569L32.7595 20L32.9979 19.5431C32.998 19.543 32.998 19.5428 32.9981 19.5427C33.6979 18.2087 34.0618 16.7067 34.0618 15.1906C34.0618 10.1143 30.0072 5.96628 25.0048 5.96628C23.4211 5.96628 21.8515 6.38545 20.4643 7.20904C20.4642 7.20915 20.464 7.20926 20.4638 7.20937L20 7.48363L19.5354 7.20891L19.5354 7.2089L19.5326 7.20726C18.15 6.40176 16.5822 5.96628 14.9952 5.96628C9.99281 5.96628 5.93816 10.1143 5.93816 15.1906C5.93816 16.7067 6.30212 18.2087 7.00185 19.5427C7.00193 19.5428 7.00202 19.543 7.0021 19.5431L7.24045 20L7.0021 20.4569C7.002 20.457 7.0019 20.4572 7.0018 20.4574C6.30211 21.7913 5.93816 23.2933 5.93816 24.8094C5.93816 29.8857 9.99281 34.0337 14.9952 34.0337C16.5788 34.0337 18.1483 33.6146 19.5354 32.7911C19.5357 32.7909 19.5359 32.7908 19.5362 32.7906L20 32.5164L20.4646 32.7911ZM19.746 6.80898L20.0009 6.95929L20.2553 6.80819C21.6624 5.9725 23.2717 5.5 25.0048 5.5C30.2421 5.5 34.5 9.82709 34.5 15.1906C34.5 16.8515 34.0896 18.4003 33.3772 19.7692L33.257 20L33.3772 20.2308C34.0896 21.5997 34.5 23.1484 34.5 24.8094C34.5 30.1729 30.2421 34.5 25.0048 34.5C23.2732 34.5 21.6488 34.0136 20.254 33.191L19.9991 33.0407L19.7447 33.1918C18.3376 34.0275 16.7283 34.5 14.9952 34.5C9.7579 34.5 5.5 30.1729 5.5 24.8094C5.5 23.1484 5.91038 21.5997 6.62281 20.2308L6.74294 20L6.62281 19.7692C5.91038 18.4003 5.5 16.8515 5.5 15.1906C5.5 9.82708 9.7579 5.5 14.9952 5.5C16.7268 5.5 18.3511 5.98637 19.746 6.80898Z" stroke="#28CA7C"/>
</svg>
