<svg width="116" height="116" viewBox="0 0 116 116" fill="none" xmlns="http://www.w3.org/2000/svg">
<path d="M76.5987 116C98.368 116 116 98.6773 116 77.3333C116 70.296 114.028 63.684 110.703 58C114.067 52.316 116 45.704 116 38.6667C116 17.3227 98.368 0 76.5987 0C69.8707 0 63.5293 1.66267 58 4.56267C52.4707 1.66267 46.1293 0 39.4013 0C17.632 0 0 17.3227 0 38.6667C0 45.704 1.972 52.316 5.29733 58C1.972 63.684 0 70.296 0 77.3333C0 98.6773 17.632 116 39.4013 116C46.1293 116 52.4707 114.337 58 111.437C63.5293 114.337 69.8707 116 76.5987 116Z" fill="#28CA72"/>
<path d="M29 57.24L51.1351 77L92 39" stroke="white" stroke-width="6" stroke-linecap="round"/>
</svg>
