<svg width="40" height="40" viewBox="0 0 40 40" fill="none" xmlns="http://www.w3.org/2000/svg">
<g clip-path="url(#clip0_687_1725)">
<path d="M21.7885 16.6731C22.3461 17.1346 22.8654 17.6539 23.3269 18.2116C23.6731 17.4808 23.9423 16.6923 24.1154 15.8846C23.3077 16.0577 22.5192 16.327 21.7885 16.6731Z" fill="white"/>
<path d="M15.6731 13.923C17.2308 14.173 18.6923 14.6923 20 15.4423C21.3077 14.6923 22.7692 14.1538 24.3269 13.923C24.3269 13.8653 24.3269 13.8076 24.3269 13.7499C24.3269 10.2499 22.6154 7.17302 20 5.23071C17.3846 7.15379 15.6731 10.2499 15.6731 13.7499C15.6731 13.8076 15.6731 13.8653 15.6731 13.923Z" fill="white"/>
<path d="M23.3269 21.7885C22.8654 22.3461 22.3461 22.8654 21.7885 23.3269C22.5192 23.6731 23.3077 23.9423 24.1154 24.1154C23.9423 23.3077 23.6731 22.5192 23.3269 21.7885Z" fill="white"/>
<path d="M18.2116 16.6731C17.4808 16.327 16.6923 16.0577 15.8846 15.8846C16.0577 16.6923 16.327 17.4808 16.6731 18.2116C17.1346 17.6539 17.6539 17.1346 18.2116 16.6731Z" fill="white"/>
<path d="M18.2116 23.3269C17.6539 22.8654 17.1346 22.3461 16.6731 21.7885C16.327 22.5192 16.0577 23.3077 15.8846 24.1154C16.6923 23.9423 17.4808 23.6731 18.2116 23.3269Z" fill="white"/>
<path d="M19.9999 22.2692C20.8653 21.6346 21.6346 20.8653 22.2692 19.9999C21.6346 19.1346 20.8653 18.3653 19.9999 17.7307C19.1346 18.3653 18.3653 19.1346 17.7307 19.9999C18.3653 20.8653 19.1346 21.6346 19.9999 22.2692Z" fill="white"/>
<path d="M13.75 13.75C13.75 9.90386 15.4808 6.46156 18.2116 4.1731C16.8462 3.53848 15.3462 3.1731 13.75 3.1731C7.9231 3.1731 3.1731 7.9231 3.1731 13.75C3.1731 15.3462 3.53848 16.8654 4.1731 18.2116C6.46156 15.4808 9.90386 13.75 13.75 13.75Z" fill="white"/>
<path d="M5.23071 20C7.15379 22.6154 10.2499 24.3269 13.7499 24.3269C13.8076 24.3269 13.8653 24.3269 13.923 24.3269C14.173 22.7692 14.6923 21.3077 15.4423 20C14.6923 18.6923 14.1538 17.2308 13.923 15.6731C13.8653 15.6731 13.8076 15.6731 13.7499 15.6731C10.2499 15.6731 7.17302 17.3846 5.23071 20Z" fill="white"/>
<path d="M34.7693 20C32.8462 17.3846 29.75 15.6731 26.25 15.6731C26.1924 15.6731 26.1347 15.6731 26.077 15.6731C25.827 17.2308 25.3077 18.6923 24.5577 20C25.3077 21.3077 25.8462 22.7692 26.077 24.3269C26.1347 24.3269 26.1924 24.3269 26.25 24.3269C29.75 24.3269 32.827 22.6154 34.7693 20Z" fill="white"/>
<path d="M26.25 3.1731C24.6538 3.1731 23.1346 3.53848 21.7885 4.1731C24.5192 6.46156 26.25 9.90386 26.25 13.75C30.0961 13.75 33.5385 15.4808 35.8269 18.2116C36.4615 16.8462 36.8269 15.3462 36.8269 13.75C36.8269 7.9231 32.0769 3.1731 26.25 3.1731Z" fill="white"/>
<path d="M13.75 26.25C9.90386 26.25 6.46156 24.5192 4.1731 21.7885C3.53848 23.1538 3.1731 24.6538 3.1731 26.25C3.1731 32.0769 7.9231 36.8269 13.75 36.8269C15.3462 36.8269 16.8654 36.4615 18.2116 35.8269C15.4808 33.5385 13.75 30.0961 13.75 26.25Z" fill="white"/>
<path d="M24.3269 26.077C22.7692 25.827 21.3077 25.3077 20 24.5577C18.6923 25.3077 17.2308 25.8462 15.6731 26.077C15.6731 26.1347 15.6731 26.1924 15.6731 26.25C15.6731 29.75 17.3846 32.827 20 34.7693C22.6154 32.8462 24.3269 29.75 24.3269 26.25C24.3269 26.1924 24.3269 26.1347 24.3269 26.077Z" fill="white"/>
<path d="M26.25 26.25C26.25 30.0961 24.5192 33.5385 21.7885 35.8269C23.1538 36.4615 24.6538 36.8269 26.25 36.8269C32.0769 36.8269 36.8269 32.0769 36.8269 26.25C36.8269 24.6538 36.4615 23.1346 35.8269 21.7885C33.5385 24.5192 30.0961 26.25 26.25 26.25Z" fill="white"/>
</g>
<defs>
<clipPath id="clip0_687_1725">
<rect width="37.5" height="37.5" fill="white" transform="translate(1.25 1.25)"/>
</clipPath>
</defs>
</svg>
