<svg width="40" height="40" viewBox="0 0 40 40" fill="none" xmlns="http://www.w3.org/2000/svg">
<path d="M25 6C29.96 6 34 10.12 34 15.19C34 16.7 33.63 18.2 32.93 19.53L32.69 20L32.93 20.47C33.63 21.8 34 23.3 34 24.81C34 29.88 29.96 34 25 34C23.43 34 21.88 33.57 20.51 32.76L20 32.46L19.49 32.76C18.12 33.57 16.57 34 15 34C10.04 34 6 29.88 6 24.81C6 23.3 6.37001 21.8 7.07001 20.47L7.31 20L7.07001 19.53C6.37001 18.2 6 16.7 6 15.19C6 10.12 10.04 6 15 6C16.57 6 18.12 6.43 19.49 7.24L20 7.54L20.51 7.24C21.88 6.43 23.43 6 25 6M25 5C23.18 5 21.47 5.51 20 6.37C18.53 5.5 16.82 5 15 5C9.48 5 5 9.56 5 15.19C5 16.93 5.43001 18.57 6.18001 20C5.43001 21.43 5 23.07 5 24.81C5 30.44 9.48 35 15 35C16.82 35 18.53 34.49 20 33.63C21.47 34.5 23.18 35 25 35C30.52 35 35 30.44 35 24.81C35 23.07 34.57 21.43 33.82 20C34.57 18.57 35 16.93 35 15.19C35 9.56 30.52 5 25 5V5Z" fill="#28CA72" fill-opacity="0.7"/>
<path d="M25.0292 15.8901H14.9492C14.6692 15.8901 14.4492 15.6701 14.4492 15.3901C14.4492 15.1101 14.6692 14.8901 14.9492 14.8901H25.0292C25.3092 14.8901 25.5292 15.1101 25.5292 15.3901C25.5292 15.6701 25.3092 15.8901 25.0292 15.8901Z" fill="#28CA72" fill-opacity="0.7"/>
<path d="M20.0009 12.0303H14.9609C14.6809 12.0303 14.4609 11.8103 14.4609 11.5303C14.4609 11.2503 14.6809 11.0303 14.9609 11.0303H20.0009C20.2809 11.0303 20.5009 11.2503 20.5009 11.5303C20.5009 11.8103 20.2809 12.0303 20.0009 12.0303Z" fill="#28CA72" fill-opacity="0.7"/>
<path d="M24.8681 28.6899H19.8281C19.5481 28.6899 19.3281 28.4699 19.3281 28.1899C19.3281 27.9099 19.5481 27.6899 19.8281 27.6899H24.8681C25.1481 27.6899 25.3681 27.9099 25.3681 28.1899C25.3681 28.4699 25.1481 28.6899 24.8681 28.6899Z" fill="#28CA72" fill-opacity="0.7"/>
<path d="M25.0292 20.5H14.9492C14.6692 20.5 14.4492 20.28 14.4492 20C14.4492 19.72 14.6692 19.5 14.9492 19.5H25.0292C25.3092 19.5 25.5292 19.72 25.5292 20C25.5292 20.28 25.3092 20.5 25.0292 20.5Z" fill="#28CA72" fill-opacity="0.7"/>
<path d="M25.0292 25.1099H14.9492C14.6692 25.1099 14.4492 24.8899 14.4492 24.6099C14.4492 24.3299 14.6692 24.1099 14.9492 24.1099H25.0292C25.3092 24.1099 25.5292 24.3299 25.5292 24.6099C25.5292 24.8899 25.3092 25.1099 25.0292 25.1099Z" fill="#28CA72" fill-opacity="0.7"/>
</svg>
